<svg width="128" height="128" viewBox="0 0 128 128" fill="none" xmlns="http://www.w3.org/2000/svg">
  <defs>
    <linearGradient id="brandGradient" x1="18" y1="16" x2="110" y2="112" gradientUnits="userSpaceOnUse">
      <stop stop-color="#0071E3"/>
      <stop offset="0.55" stop-color="#34AADC"/>
      <stop offset="1" stop-color="#5E5CE6"/>
    </linearGradient>
  </defs>
  <rect x="8" y="8" width="112" height="112" rx="34" fill="#F8FAFF"/>
  <rect x="10" y="10" width="108" height="108" rx="32" stroke="url(#brandGradient)" stroke-width="4"/>
  <path d="M83.212 38.06C77.478 32.688 70.424 30 62.05 30C53.676 30 46.622 32.884 40.888 38.652C35.154 44.42 32.287 51.736 32.287 60.6C32.287 69.464 35.154 76.78 40.888 82.548C46.622 88.316 53.676 91.2 62.05 91.2C69.674 91.2 76.204 88.94 81.64 84.42L88.252 91.2H99.05L89.72 81.756C93.524 75.988 95.426 68.936 95.426 60.6C95.426 51.396 91.355 43.883 83.212 38.06ZM62.05 80.206C56.618 80.206 52.106 78.332 48.514 74.584C44.978 70.836 43.21 66.175 43.21 60.6C43.21 55.025 44.978 50.364 48.514 46.616C52.106 42.868 56.618 40.994 62.05 40.994C67.482 40.994 71.966 42.868 75.502 46.616C79.094 50.364 80.89 55.025 80.89 60.6C80.89 64.46 80.006 67.816 78.238 70.668L69.862 62.116H59.336L71.286 74.31C68.59 78.241 65.511 80.206 62.05 80.206Z" fill="#121826"/>
</svg>
