<svg xmlns="http://www.w3.org/2000/svg" width="1200" height="630" viewBox="0 0 1200 630">
  <defs>
    <linearGradient id="bg" x1="0" y1="0" x2="0" y2="1">
      <stop offset="0" stop-color="#ffffff"/>
      <stop offset="1" stop-color="#f5f5f7"/>
    </linearGradient>
    <radialGradient id="r1" cx="30%" cy="28%" r="62%">
      <stop offset="0" stop-color="#111113" stop-opacity="0.14"/>
      <stop offset="1" stop-color="#111113" stop-opacity="0"/>
    </radialGradient>
    <radialGradient id="r2" cx="80%" cy="72%" r="58%">
      <stop offset="0" stop-color="#0071e3" stop-opacity="0.20"/>
      <stop offset="1" stop-color="#0071e3" stop-opacity="0"/>
    </radialGradient>
    <filter id="blur" x="-30%" y="-30%" width="160%" height="160%">
      <feGaussianBlur stdDeviation="18"/>
    </filter>
  </defs>
  <rect width="1200" height="630" fill="url(#bg)"/>
  <rect width="1200" height="630" fill="url(#r1)"/>
  <rect width="1200" height="630" fill="url(#r2)"/>
  <g opacity="0.95">
    <g filter="url(#blur)">
      <rect x="140" y="140" width="920" height="350" rx="52" fill="#ffffff" fill-opacity="0.72"/>
      <rect x="170" y="170" width="860" height="290" rx="44" fill="#111113" fill-opacity="0.05"/>
    </g>
    <g opacity="0.9">
      <rect x="220" y="218" width="340" height="22" rx="11" fill="#111113" fill-opacity="0.10"/>
      <rect x="220" y="258" width="560" height="16" rx="8" fill="#111113" fill-opacity="0.08"/>
      <rect x="220" y="288" width="520" height="16" rx="8" fill="#111113" fill-opacity="0.07"/>
      <rect x="220" y="318" width="460" height="16" rx="8" fill="#111113" fill-opacity="0.06"/>
      <rect x="220" y="368" width="210" height="12" rx="6" fill="#0071e3" fill-opacity="0.18"/>
      <rect x="446" y="368" width="160" height="12" rx="6" fill="#111113" fill-opacity="0.08"/>
    </g>
  </g>
</svg>
