<svg xmlns="http://www.w3.org/2000/svg" width="1200" height="630" viewBox="0 0 1200 630">
  <defs>
    <linearGradient id="bg" x1="0" y1="0" x2="1" y2="1">
      <stop offset="0" stop-color="#ffffff"/>
      <stop offset="1" stop-color="#f2f2f4"/>
    </linearGradient>
    <radialGradient id="g1" cx="22%" cy="70%" r="58%">
      <stop offset="0" stop-color="#f59e0b" stop-opacity="0.18"/>
      <stop offset="1" stop-color="#f59e0b" stop-opacity="0"/>
    </radialGradient>
    <radialGradient id="g2" cx="85%" cy="28%" r="55%">
      <stop offset="0" stop-color="#0071e3" stop-opacity="0.18"/>
      <stop offset="1" stop-color="#0071e3" stop-opacity="0"/>
    </radialGradient>
    <filter id="soft" x="-30%" y="-30%" width="160%" height="160%">
      <feGaussianBlur stdDeviation="20"/>
    </filter>
  </defs>
  <rect width="1200" height="630" fill="url(#bg)"/>
  <rect width="1200" height="630" fill="url(#g1)"/>
  <rect width="1200" height="630" fill="url(#g2)"/>
  <g opacity="0.95">
    <g filter="url(#soft)">
      <circle cx="360" cy="330" r="150" fill="#111113" fill-opacity="0.06"/>
      <circle cx="820" cy="300" r="190" fill="#111113" fill-opacity="0.04"/>
    </g>
    <g opacity="0.9">
      <path d="M260 410c90-130 220-195 390-195s300 65 390 195" fill="none" stroke="#111113" stroke-opacity="0.10" stroke-width="30" stroke-linecap="round"/>
      <path d="M290 428c76-110 190-165 340-165s264 55 340 165" fill="none" stroke="#0071e3" stroke-opacity="0.18" stroke-width="20" stroke-linecap="round"/>
      <path d="M318 445c62-88 156-132 282-132s220 44 282 132" fill="none" stroke="#f59e0b" stroke-opacity="0.16" stroke-width="14" stroke-linecap="round"/>
    </g>
  </g>
</svg>
