<svg xmlns="http://www.w3.org/2000/svg" width="1200" height="630" viewBox="0 0 1200 630">
  <defs>
    <linearGradient id="bg" x1="0" y1="0" x2="0" y2="1">
      <stop offset="0" stop-color="#ffffff"/>
      <stop offset="1" stop-color="#fafafa"/>
    </linearGradient>
    <radialGradient id="halo" cx="30%" cy="25%" r="65%">
      <stop offset="0" stop-color="#22c55e" stop-opacity="0.20"/>
      <stop offset="1" stop-color="#22c55e" stop-opacity="0"/>
    </radialGradient>
    <radialGradient id="halo2" cx="78%" cy="62%" r="60%">
      <stop offset="0" stop-color="#0071e3" stop-opacity="0.16"/>
      <stop offset="1" stop-color="#0071e3" stop-opacity="0"/>
    </radialGradient>
    <filter id="blur" x="-30%" y="-30%" width="160%" height="160%">
      <feGaussianBlur stdDeviation="22"/>
    </filter>
  </defs>
  <rect width="1200" height="630" fill="url(#bg)"/>
  <rect width="1200" height="630" fill="url(#halo)"/>
  <rect width="1200" height="630" fill="url(#halo2)"/>
  <g opacity="0.95">
    <g filter="url(#blur)">
      <rect x="220" y="150" width="760" height="360" rx="48" fill="#111113" fill-opacity="0.06"/>
      <rect x="260" y="190" width="680" height="280" rx="40" fill="#ffffff" fill-opacity="0.72"/>
    </g>
    <g opacity="0.9">
      <rect x="290" y="220" width="260" height="24" rx="12" fill="#111113" fill-opacity="0.10"/>
      <rect x="290" y="264" width="520" height="18" rx="9" fill="#111113" fill-opacity="0.08"/>
      <rect x="290" y="296" width="460" height="18" rx="9" fill="#111113" fill-opacity="0.07"/>
      <rect x="290" y="328" width="380" height="18" rx="9" fill="#111113" fill-opacity="0.06"/>
      <rect x="290" y="382" width="160" height="14" rx="7" fill="#0071e3" fill-opacity="0.18"/>
      <rect x="470" y="382" width="140" height="14" rx="7" fill="#22c55e" fill-opacity="0.18"/>
      <rect x="630" y="382" width="120" height="14" rx="7" fill="#111113" fill-opacity="0.08"/>
    </g>
  </g>
</svg>
